<?xml version="1.0" encoding="utf-8"?>
<!-- Generator: Adobe Illustrator 19.0.0, SVG Export Plug-In . SVG Version: 6.00 Build 0)  -->
<svg version="1.1" id="Layer_1" xmlns="http://www.w3.org/2000/svg" xmlns:xlink="http://www.w3.org/1999/xlink" x="0px" y="0px"
	 viewBox="0 0 638.5 136.7" style="enable-background:new 0 0 638.5 136.7;" xml:space="preserve">
<style type="text/css">
	.st0{fill:#172736;}
</style>
<g>
	<path class="st0" d="M47.2,84.1c1.5,1.3,3.7,2,6.6,2c8.3,0,10.3-5,10.3-14.2V21.5h12.8v49.7c0,12.7-3.1,25.4-24.1,25.4
		c-5.9,0-10.5-1.5-13.9-4L47.2,84.1z"/>
	<path class="st0" d="M132.7,94.8h-11.5v-7.4H121c-2.9,5.3-9.3,8.8-15.1,8.8c-13.9,0-19.8-7-19.8-20.9V41.7h11.7v32.6
		c0,9.4,3.8,12.8,10.2,12.8c9.8,0,13.1-6.3,13.1-14.5V41.7h11.7V94.8z"/>
	<path class="st0" d="M141.3,41.7h11.1v7.4h0.3c3.5-5.2,7.9-8.8,16.3-8.8c6.5,0,12.5,2.8,14.9,8.8c3.9-5.4,8.9-8.8,16.6-8.8
		c11.2,0,17.8,4.9,17.8,17.9v36.7h-11.7v-31c0-8.4-0.5-14.3-9.7-14.3c-7.9,0-11.3,5.2-11.3,14.2v31.1H174V60.7
		c0-7.3-2.3-11.2-9.4-11.2c-6.1,0-11.6,4.9-11.6,13.8v31.5h-11.7V41.7z"/>
	<path class="st0" d="M227.3,41.7h11.1v7.2h0.2c3.3-6.1,9.7-8.6,16.4-8.6c16.7,0,24.9,12.7,24.9,28.3c0,14.3-7.2,27.7-22.9,27.7
		c-6.8,0-14.1-2.5-17.8-8.3H239v26.5h-11.7V41.7z M253.5,49.5c-9.9,0-14.9,7.5-14.9,18.8C238.6,79,244,87,253.5,87
		c10.7,0,14.7-9.5,14.7-18.7C268.2,58.7,263.1,49.5,253.5,49.5"/>
	<path class="st0" d="M287.4,77.3c0.6,9.8,7.9,15.4,17.5,15.4c6.9,0,16.7-2,16.7-11.2c0-8.9-9-10.3-18.1-12.1
		c-9.1-1.9-18.2-4.2-18.2-15c0-10.5,10.2-13.6,19.1-13.6c11.2,0,19.5,4.8,19.5,16.8h-3.9c-0.1-9.5-6.8-13.5-15.6-13.5
		c-7.2,0-15.2,2.7-15.2,10.2c0,8.4,9,9.8,17.6,11.6c10.5,2,18.7,4.4,18.7,15.5c0,11.4-11.4,14.6-20.6,14.6c-12,0-21.1-6.5-21.4-18.8
		H287.4z"/>
	<path class="st0" d="M350.8,45.4h-11.5v36.9c0,8.5,4,9.4,11.4,9.1v3.4c-8,0.5-15.7-0.6-15.3-12.5V45.4h-9.8V42h9.8V27.8h3.9V42
		h11.5V45.4z"/>
	<path class="st0" d="M395,85.1c0,3.1,0,6.4,3.5,6.4c0.7,0,1.6-0.1,2.9-0.3v3.3c-1.1,0.2-2.2,0.4-3.2,0.4c-6.2,0-7.1-3.4-7.1-7.7
		v-2.8h-0.2c-2.5,6.3-9.6,11.7-19.6,11.7c-10,0-17.7-3.8-17.7-14.9c0-12.3,10.7-14.9,19.4-15.6c17.5-1.2,18.2-2.4,18.2-11
		c0-2.4-2.7-10.4-14.7-10.4c-9.5,0-15.7,4.9-16.2,14.1h-3.9c0.5-11.6,7.7-17.5,20.1-17.5c9.2,0,18.5,2.9,18.5,13.8V85.1z
		 M391.1,64.8c-3.1,3.5-11.5,3.1-19.1,4.1c-9.2,1-14.5,4.3-14.5,12.2c0,6.4,4.6,11.5,13.9,11.5c17.8,0,19.7-15.2,19.7-18V64.8z"/>
	<path class="st0" d="M429.4,45.5c-3.8,0.1-8.4,1.4-12.3,5.3c-3.9,4-5.5,7.3-6,15.2v28.9h-3.9V42h3.9v11.7h0.3
		c1.9-6.4,9.4-11.6,18-12L429.4,45.5z"/>
	<path class="st0" d="M457,45.4h-11.5v36.9c0,8.5,4,9.4,11.4,9.1v3.4c-8,0.5-15.7-0.6-15.3-12.5V45.4h-8.3V42h8.3V25.6h3.9V42H457
		V45.4z"/>
	<polygon class="st0" points="536.2,95.1 531.3,95.1 531.3,28.3 503.8,80.1 499.1,80.1 499.1,80 471.3,28.3 471.3,95.1 466.4,95.1 
		466.4,22.2 473.7,22.2 473.7,22.3 501.5,74.1 528.9,22.2 536.2,22.2 	"/>
	<path class="st0" d="M565.5,22.2h-21.9v4.3h0v64.4h0v4.3h21.7c11.1,0,19.8-3.6,25.7-10.6c5.4-6.3,8.2-15.3,8.2-26
		C599.2,45,594.9,22.2,565.5,22.2z M565.7,90.8h-17.8V26.4h16.9c19.9,0,29.5,10.5,29.5,32.1C594.4,88.5,572.5,90.8,565.7,90.8z"/>
</g>
</svg>
